<svg width="50" height="50" viewBox="0 0 50 50" fill="none" xmlns="http://www.w3.org/2000/svg">
<g id="ant-design:ordered-list-outlined">
<path id="Vector" d="M44.9219 37.1094H16.4062C16.1914 37.1094 16.0156 37.2852 16.0156 37.5V40.2344C16.0156 40.4492 16.1914 40.625 16.4062 40.625H44.9219C45.1367 40.625 45.3125 40.4492 45.3125 40.2344V37.5C45.3125 37.2852 45.1367 37.1094 44.9219 37.1094ZM44.9219 9.375H16.4062C16.1914 9.375 16.0156 9.55078 16.0156 9.76562V12.5C16.0156 12.7148 16.1914 12.8906 16.4062 12.8906H44.9219C45.1367 12.8906 45.3125 12.7148 45.3125 12.5V9.76562C45.3125 9.55078 45.1367 9.375 44.9219 9.375ZM44.9219 23.2422H16.4062C16.1914 23.2422 16.0156 23.418 16.0156 23.6328V26.3672C16.0156 26.582 16.1914 26.7578 16.4062 26.7578H44.9219C45.1367 26.7578 45.3125 26.582 45.3125 26.3672V23.6328C45.3125 23.418 45.1367 23.2422 44.9219 23.2422ZM10.5469 34.7656H4.88281C4.77539 34.7656 4.6875 34.8535 4.6875 34.9609V36.6211C4.6875 36.7285 4.77539 36.8164 4.88281 36.8164H8.41797V37.8174H6.6748C6.56738 37.8174 6.47949 37.9053 6.47949 38.0127V39.6729C6.47949 39.7803 6.56738 39.8682 6.6748 39.8682H8.41797V40.918H4.88281C4.77539 40.918 4.6875 41.0059 4.6875 41.1133V42.7734C4.6875 42.8809 4.77539 42.9688 4.88281 42.9688H10.5469C10.6543 42.9688 10.7422 42.8809 10.7422 42.7734V34.9609C10.7422 34.8535 10.6543 34.7656 10.5469 34.7656ZM4.88281 9.17969H6.73828V15.0391C6.73828 15.1465 6.82617 15.2344 6.93359 15.2344H8.88672C8.99414 15.2344 9.08203 15.1465 9.08203 15.0391V7.42188C9.08203 7.20703 8.90625 7.03125 8.69141 7.03125H4.88281C4.77539 7.03125 4.6875 7.11914 4.6875 7.22656V8.98438C4.6875 9.0918 4.77539 9.17969 4.88281 9.17969ZM10.5469 20.8984H4.88281C4.77539 20.8984 4.6875 20.9863 4.6875 21.0938V22.8516C4.6875 22.959 4.77539 23.0469 4.88281 23.0469H8.22266L4.79004 26.8408C4.7253 26.9135 4.6889 27.0071 4.6875 27.1045V28.9062C4.6875 29.0137 4.77539 29.1016 4.88281 29.1016H10.5469C10.6543 29.1016 10.7422 29.0137 10.7422 28.9062V27.1484C10.7422 27.041 10.6543 26.9531 10.5469 26.9531H7.20703L10.6396 23.1592C10.7044 23.0865 10.7408 22.9929 10.7422 22.8955V21.0938C10.7422 20.9863 10.6543 20.8984 10.5469 20.8984Z" fill="white"/>
</g>
</svg>
