<svg width="50" height="50" viewBox="0 0 50 50" fill="none" xmlns="http://www.w3.org/2000/svg">
<g id="ant-design:strikethrough-outlined">
<path id="Vector" d="M46.4844 23.1445H27.8272C27.3389 23.0469 26.8262 22.9492 26.2842 22.8516C25.5078 22.71 25.2002 22.6514 24.7803 22.5684C22.2754 22.0801 20.7666 21.5918 19.5654 20.8984C17.8516 19.8975 17.0166 18.54 17.0166 16.7432C17.0166 14.9365 17.7588 13.4375 19.165 12.3975C20.5518 11.3721 22.5244 10.8301 24.8682 10.8301C27.5439 10.8301 29.6094 11.5332 31.0107 12.9199C31.7236 13.623 32.2461 14.4873 32.5635 15.4883C32.627 15.6885 32.7002 15.9766 32.7734 16.3574C32.8174 16.5918 33.0273 16.7578 33.2568 16.7578H36.8115C37.085 16.7578 37.3047 16.5332 37.3047 16.2646V16.2158C37.2705 15.8838 37.2412 15.625 37.207 15.4346C36.8506 13.3105 35.8398 11.4453 34.292 10.0488C32.124 8.07129 28.9355 7.03125 25.0781 7.03125C21.5478 7.03125 18.3691 7.91504 16.1279 9.5166C14.8779 10.415 13.9111 11.5283 13.2666 12.8223C12.6074 14.1455 12.2754 15.6738 12.2754 17.3584C12.2754 18.7988 12.5537 20.0195 13.1201 21.0938C13.5254 21.8604 14.0771 22.5342 14.7852 23.1445H3.51562C3.30078 23.1445 3.125 23.3203 3.125 23.5352V26.4648C3.125 26.6797 3.30078 26.8555 3.51562 26.8555H24.668C24.7705 26.875 24.8584 26.8945 24.9561 26.9141C26.4648 27.2168 27.373 27.4219 28.208 27.6563C29.3311 27.9736 30.1904 28.3057 30.9033 28.7061C32.6514 29.6924 33.5059 31.1084 33.5059 33.0518C33.5059 34.7754 32.749 36.3135 31.377 37.3877C29.8877 38.5547 27.6855 39.165 25.0049 39.165C22.8711 39.165 21.0645 38.75 19.624 37.9443C18.2031 37.1484 17.2266 36.001 16.709 34.5508C16.6699 34.4434 16.626 34.2969 16.5771 34.1113C16.5186 33.8965 16.3184 33.7451 16.1035 33.7451H12.2119C11.9385 33.7451 11.7188 33.9697 11.7188 34.2383V34.2871C11.7285 34.3994 11.7383 34.4922 11.748 34.5654C12.0654 36.9482 13.2275 38.9014 15.2002 40.3662C17.5 42.0654 20.7373 42.9639 24.5654 42.9639C28.6768 42.9639 32.124 41.9971 34.5361 40.166C35.7568 39.2432 36.6943 38.1055 37.3242 36.7969C37.959 35.4736 38.2861 33.9697 38.2861 32.3291C38.2861 30.7764 38.0029 29.4775 37.417 28.3545C37.1338 27.8076 36.7773 27.3047 36.3525 26.8506H46.4844C46.6992 26.8506 46.875 26.6748 46.875 26.46V23.5303C46.8737 23.4275 46.832 23.3294 46.7589 23.2572C46.6858 23.185 46.5871 23.1445 46.4844 23.1445Z" fill="white"/>
</g>
</svg>
