<svg width="50" height="50" viewBox="0 0 50 50" fill="none" xmlns="http://www.w3.org/2000/svg">
<g id="ant-design:unordered-list-outlined">
<path id="Vector" d="M44.5312 9.375H16.0156C15.8008 9.375 15.625 9.55078 15.625 9.76562V12.5C15.625 12.7148 15.8008 12.8906 16.0156 12.8906H44.5312C44.7461 12.8906 44.9219 12.7148 44.9219 12.5V9.76562C44.9219 9.55078 44.7461 9.375 44.5312 9.375ZM44.5312 23.2422H16.0156C15.8008 23.2422 15.625 23.418 15.625 23.6328V26.3672C15.625 26.582 15.8008 26.7578 16.0156 26.7578H44.5312C44.7461 26.7578 44.9219 26.582 44.9219 26.3672V23.6328C44.9219 23.418 44.7461 23.2422 44.5312 23.2422ZM44.5312 37.1094H16.0156C15.8008 37.1094 15.625 37.2852 15.625 37.5V40.2344C15.625 40.4492 15.8008 40.625 16.0156 40.625H44.5312C44.7461 40.625 44.9219 40.4492 44.9219 40.2344V37.5C44.9219 37.2852 44.7461 37.1094 44.5312 37.1094ZM5.07812 11.1328C5.07812 11.4919 5.14885 11.8475 5.28627 12.1792C5.42368 12.511 5.62509 12.8124 5.87901 13.0663C6.13292 13.3202 6.43435 13.5216 6.7661 13.659C7.09785 13.7965 7.45342 13.8672 7.8125 13.8672C8.17158 13.8672 8.52715 13.7965 8.8589 13.659C9.19065 13.5216 9.49208 13.3202 9.746 13.0663C9.99991 12.8124 10.2013 12.511 10.3387 12.1792C10.4761 11.8475 10.5469 11.4919 10.5469 11.1328C10.5469 10.7737 10.4761 10.4182 10.3387 10.0864C10.2013 9.75466 9.99991 9.45323 9.746 9.19932C9.49208 8.94541 9.19065 8.74399 8.8589 8.60658C8.52715 8.46916 8.17158 8.39844 7.8125 8.39844C7.45342 8.39844 7.09785 8.46916 6.7661 8.60658C6.43435 8.74399 6.13292 8.94541 5.87901 9.19932C5.62509 9.45323 5.42368 9.75466 5.28627 10.0864C5.14885 10.4182 5.07812 10.7737 5.07812 11.1328ZM5.07812 25C5.07812 25.3591 5.14885 25.7147 5.28627 26.0464C5.42368 26.3782 5.62509 26.6796 5.87901 26.9335C6.13292 27.1874 6.43435 27.3888 6.7661 27.5262C7.09785 27.6636 7.45342 27.7344 7.8125 27.7344C8.17158 27.7344 8.52715 27.6636 8.8589 27.5262C9.19065 27.3888 9.49208 27.1874 9.746 26.9335C9.99991 26.6796 10.2013 26.3782 10.3387 26.0464C10.4761 25.7147 10.5469 25.3591 10.5469 25C10.5469 24.6409 10.4761 24.2853 10.3387 23.9536C10.2013 23.6219 9.99991 23.3204 9.746 23.0665C9.49208 22.8126 9.19065 22.6112 8.8589 22.4738C8.52715 22.3364 8.17158 22.2656 7.8125 22.2656C7.45342 22.2656 7.09785 22.3364 6.7661 22.4738C6.43435 22.6112 6.13292 22.8126 5.87901 23.0665C5.62509 23.3204 5.42368 23.6219 5.28627 23.9536C5.14885 24.2853 5.07812 24.6409 5.07812 25ZM5.07812 38.8672C5.07812 39.2263 5.14885 39.5818 5.28627 39.9136C5.42368 40.2453 5.62509 40.5468 5.87901 40.8007C6.13292 41.0546 6.43435 41.256 6.7661 41.3934C7.09785 41.5308 7.45342 41.6016 7.8125 41.6016C8.17158 41.6016 8.52715 41.5308 8.8589 41.3934C9.19065 41.256 9.49208 41.0546 9.746 40.8007C9.99991 40.5468 10.2013 40.2453 10.3387 39.9136C10.4761 39.5818 10.5469 39.2263 10.5469 38.8672C10.5469 38.5081 10.4761 38.1525 10.3387 37.8208C10.2013 37.489 9.99991 37.1876 9.746 36.9337C9.49208 36.6798 9.19065 36.4784 8.8589 36.341C8.52715 36.2035 8.17158 36.1328 7.8125 36.1328C7.45342 36.1328 7.09785 36.2035 6.7661 36.341C6.43435 36.4784 6.13292 36.6798 5.87901 36.9337C5.62509 37.1876 5.42368 37.489 5.28627 37.8208C5.14885 38.1525 5.07812 38.5081 5.07812 38.8672Z" fill="white"/>
</g>
</svg>
