<svg width="50" height="50" viewBox="0 0 50 50" fill="none" xmlns="http://www.w3.org/2000/svg">
<g id="ant-design:bold-outlined">
<path id="Vector" d="M34.0723 23.5059C35.7129 21.7969 36.7188 19.4873 36.7188 16.9482V16.4502C36.7188 11.1963 32.417 6.93359 27.1143 6.93359H12.666C11.9287 6.93359 11.3281 7.53418 11.3281 8.27148V41.4307C11.3281 42.2266 11.9727 42.8711 12.7686 42.8711H28.3301C34.043 42.8711 38.6719 38.2715 38.6719 32.5928V32.0557C38.6719 28.4912 36.8457 25.3516 34.0723 23.5059ZM16.0156 11.6211H26.9873C29.7754 11.6211 32.0312 13.7891 32.0312 16.4697V16.9336C32.0312 19.6094 29.7705 21.7822 26.9873 21.7822H16.0156V11.6211ZM33.916 32.5879C33.916 35.6592 31.3916 38.1494 28.2764 38.1494H16.0156V26.499H28.2764C31.3916 26.499 33.916 28.9893 33.916 32.0605V32.5879Z" fill="white"/>
</g>
</svg>
