<svg width="50" height="50" viewBox="0 0 50 50" fill="none" xmlns="http://www.w3.org/2000/svg">
<g id="ant-design:underline-outlined">
<path id="Vector" d="M40.2344 39.2578H9.76562C9.55078 39.2578 9.375 39.4238 9.375 39.6289V42.5977C9.375 42.8027 9.55078 42.9688 9.76562 42.9688H40.2344C40.4492 42.9688 40.625 42.8027 40.625 42.5977V39.6289C40.625 39.4238 40.4492 39.2578 40.2344 39.2578ZM25 35.5469C28.3887 35.5469 31.5723 34.2236 33.9746 31.8262C36.377 29.4287 37.6953 26.2402 37.6953 22.8516V7.61719C37.6953 7.29492 37.4316 7.03125 37.1094 7.03125H34.1797C33.8574 7.03125 33.5938 7.29492 33.5938 7.61719V22.8516C33.5938 27.5879 29.7363 31.4453 25 31.4453C20.2637 31.4453 16.4062 27.5879 16.4062 22.8516V7.61719C16.4062 7.29492 16.1426 7.03125 15.8203 7.03125H12.8906C12.5684 7.03125 12.3047 7.29492 12.3047 7.61719V22.8516C12.3047 26.2402 13.6279 29.4238 16.0254 31.8262C18.4229 34.2285 21.6113 35.5469 25 35.5469Z" fill="white"/>
</g>
</svg>
