<svg width="50" height="50" viewBox="0 0 50 50" fill="none" xmlns="http://www.w3.org/2000/svg">
<g id="ant-design:italic-outlined">
<path id="Vector" d="M38.9648 7.8125H17.8711C17.6562 7.8125 17.4805 7.98828 17.4805 8.20312V11.3281C17.4805 11.543 17.6562 11.7188 17.8711 11.7188H26.7188L19.1016 38.2812H11.1816C10.9668 38.2812 10.791 38.457 10.791 38.6719V41.7969C10.791 42.0117 10.9668 42.1875 11.1816 42.1875H32.2754C32.4902 42.1875 32.666 42.0117 32.666 41.7969V38.6719C32.666 38.457 32.4902 38.2812 32.2754 38.2812H23.1641L30.7813 11.7188H38.9648C39.1797 11.7188 39.3555 11.543 39.3555 11.3281V8.20312C39.3555 7.98828 39.1797 7.8125 38.9648 7.8125Z" fill="white"/>
</g>
</svg>
