<svg width="24" height="24" viewBox="0 0 24 24" fill="none" xmlns="http://www.w3.org/2000/svg">
<g id="basil:vk-solid">
<path id="Vector" d="M16.7288 15.9571L16.7289 15.9571L16.7255 15.9538C15.3684 14.6459 14.7345 14.4188 14.287 14.4188C14.0484 14.4188 13.7847 14.4456 13.6136 14.6588C13.5329 14.7594 13.4906 14.8807 13.4668 15.007C13.4431 15.1332 13.435 15.2813 13.435 15.4498V17.5018C13.435 17.7565 13.3931 17.8634 13.2752 17.9419C13.1181 18.0465 12.7824 18.1312 12.0634 18.1318C10.6992 18.0389 9.37635 17.6238 8.20352 16.9206C7.0283 16.216 6.03729 15.2422 5.31212 14.0795L5.30423 14.0669L5.29489 14.0553C3.55347 11.8879 2.34004 9.3453 1.7503 6.62853C1.7535 6.4979 1.78188 6.42017 1.82793 6.37159C1.87539 6.32153 1.99025 6.25185 2.282 6.25185H4.562C4.81541 6.25185 4.94648 6.30697 5.04087 6.39274C5.14794 6.49003 5.24086 6.65535 5.3538 6.9507C5.91334 8.59626 6.67008 10.1355 7.38678 11.2673C7.74501 11.8331 8.09758 12.304 8.4153 12.6368C8.5739 12.8029 8.72945 12.9406 8.87791 13.0384C9.02163 13.1332 9.18451 13.2078 9.352 13.2078C9.4404 13.2078 9.54376 13.1987 9.64326 13.1546C9.7503 13.1072 9.83333 13.0282 9.89194 12.9224C9.99563 12.7351 10.024 12.4579 10.024 12.0948V8.73885V8.73093L10.0235 8.72304C9.97165 7.90465 9.7246 7.44449 9.48403 7.11736C9.43133 7.0457 9.37936 6.98097 9.33389 6.92432C9.32966 6.91905 9.32549 6.91386 9.32138 6.90873C9.27144 6.84647 9.2317 6.79614 9.19905 6.7483C9.1392 6.66058 9.11599 6.59936 9.11412 6.53363C9.12181 6.4557 9.15846 6.38335 9.217 6.33102C9.27773 6.27672 9.35723 6.24825 9.43861 6.25163L9.43861 6.25185H9.449H13.033C13.2394 6.25185 13.3087 6.30218 13.3435 6.3481C13.3927 6.41306 13.435 6.54816 13.435 6.83184V11.3618C13.435 11.8993 13.6818 12.2628 14.043 12.2628C14.4573 12.2628 14.7553 12.0122 15.2786 11.4898L15.2874 11.481L15.2953 11.4714C16.4661 10.0436 17.4226 8.45283 18.1347 6.74926L18.135 6.7494L18.1395 6.73677C18.1931 6.58631 18.2945 6.45751 18.4281 6.37003C18.5618 6.28255 18.7203 6.24119 18.8797 6.25225L18.8883 6.25285H18.897H21.178C21.4908 6.25285 21.5936 6.33231 21.6268 6.37921C21.6621 6.42911 21.6867 6.53614 21.6268 6.7465C20.8056 8.58288 19.7905 10.3262 18.5986 11.9467L18.5983 11.9465L18.591 11.9577C18.4749 12.1346 18.3479 12.3302 18.3296 12.5552C18.3099 12.7965 18.4146 13.016 18.5972 13.2513C18.7299 13.4479 19.0041 13.7163 19.2822 13.9885L19.29 13.9961L19.3082 14.0139C19.6009 14.3004 19.918 14.6108 20.1721 14.9113L20.1789 14.9194L20.1865 14.9268C20.9442 15.6827 21.5739 16.556 22.0517 17.5123C22.1282 17.7736 22.0815 17.9069 22.0223 17.9756C21.9529 18.056 21.7975 18.1308 21.503 18.1308H19.222C19.0439 18.1308 18.9064 18.0957 18.775 18.0264C18.6381 17.9541 18.4973 17.839 18.3208 17.6616C18.1783 17.5183 18.0226 17.345 17.8327 17.1335C17.786 17.0816 17.7373 17.0273 17.6861 16.9706C17.4294 16.6859 17.1199 16.3484 16.7288 15.9571Z" fill="#333333" stroke="white" stroke-width="0.5"/>
</g>
</svg>
