<svg width="36" height="32" viewBox="0 0 36 32" fill="none" xmlns="http://www.w3.org/2000/svg">
<path id="Vector" d="M21.2 14.6V21.6M5.2 7.6H30.8L28.272 27.508C28.1853 28.1931 27.8129 28.8262 27.226 29.286C26.6391 29.7458 25.879 30 25.0912 30H10.9088C10.121 30 9.3609 29.7458 8.774 29.286C8.18709 28.8262 7.81466 28.1931 7.728 27.508L5.2 7.6ZM10.552 3.6058C10.8108 3.12555 11.2203 2.7196 11.7328 2.43528C12.2453 2.15095 12.8396 1.99999 13.4464 2H22.5536C23.1607 1.99973 23.7553 2.15056 24.2681 2.4349C24.7809 2.71924 25.1907 3.12534 25.4496 3.6058L27.6 7.6H8.4L10.552 3.6058V3.6058ZM2 7.6H34H2ZM14.8 14.6V21.6V14.6Z" stroke="white" stroke-width="3" stroke-linecap="round" stroke-linejoin="round"/>
</svg>
