<svg width="24" height="24" viewBox="0 0 24 24" fill="none" xmlns="http://www.w3.org/2000/svg">
<g id="ic:baseline-discord">
<path id="Vector" d="M15.0855 4.26907C16.5092 4.52686 17.8756 4.95839 19.1405 5.54548C21.4412 8.95629 22.579 12.7852 22.169 17.1946C20.4528 18.4426 18.8025 19.2121 17.1618 19.7283C16.8486 19.2781 16.5562 18.8082 16.2901 18.3185C16.7982 18.1146 17.2935 17.8827 17.767 17.6014C17.8684 17.551 17.932 17.4527 17.9384 17.3435C17.9447 17.2369 17.8962 17.1375 17.8157 17.0743C17.7589 17.028 17.7025 16.9844 17.6491 16.9431L17.648 16.9422C17.5948 16.9011 17.5445 16.8622 17.4946 16.8216C17.3852 16.7229 17.2436 16.7313 17.1537 16.7738C13.8217 18.3119 10.1892 18.3125 6.81577 16.7735C6.72775 16.7321 6.5906 16.7235 6.48246 16.8156C6.42812 16.8554 6.3744 16.8969 6.32364 16.9362L6.32226 16.9372C6.26673 16.9801 6.21463 17.0204 6.16307 17.0579L6.14721 17.0694L6.13334 17.0833C6.062 17.1546 6.03437 17.2496 6.0393 17.3335C6.04431 17.4186 6.08737 17.5292 6.2006 17.5897C6.68083 17.8613 7.17014 18.1012 7.68261 18.3091C7.42256 18.7996 7.12923 19.2705 6.80803 19.7217C5.18341 19.2055 3.54014 18.4373 1.83146 17.1948C1.48601 13.3711 2.22464 9.51203 4.8649 5.53858C6.13631 4.95435 7.4897 4.52513 8.90774 4.26853C9.07476 4.56944 9.24917 4.92434 9.36895 5.21523L9.44358 5.39649L9.63741 5.36725C11.2037 5.13098 12.7965 5.13098 14.3628 5.36725L14.5545 5.39617L14.6303 5.21768C14.7505 4.93429 14.925 4.57249 15.0855 4.26907ZM6.38012 12.79C6.38012 14.0715 7.32688 15.16 8.52012 15.16C9.73463 15.16 10.6596 14.0703 10.6601 12.7911C10.6705 11.5198 9.74439 10.42 8.52012 10.42C7.30527 10.42 6.38012 11.5104 6.38012 12.79ZM13.3501 12.79C13.3501 14.0715 14.2969 15.16 15.4901 15.16C16.7154 15.16 17.6296 14.0694 17.6301 12.7911C17.6405 11.5198 16.7144 10.42 15.4901 10.42C14.2753 10.42 13.3501 11.5104 13.3501 12.79Z" fill="#333333" stroke="white" stroke-width="0.5"/>
</g>
</svg>
