<svg width="45" height="59" viewBox="0 0 45 59" fill="none" xmlns="http://www.w3.org/2000/svg">
<path id="Vector" d="M6.91066 0.100464C6.91066 0.800301 8.33118 3.59965 9.86688 5.91548C10.494 6.88253 10.9803 7.69688 10.9419 7.73505C10.9035 7.77323 8.65112 7.8623 5.95084 7.93864L1.0366 8.05316L4.08241 11.1833C5.77168 12.9011 7.57613 14.6571 8.11362 15.0643C8.63832 15.4842 9.11183 15.9041 9.15022 16.0059C9.18861 16.1077 9.13742 16.3112 9.02225 16.4639C8.36957 17.3419 8.02404 17.9654 7.80648 18.6652C7.48654 19.6959 7.26899 21.8463 7.32018 23.475L7.35857 24.7602L6.11721 26.7197C4.68389 29.0228 3.5961 30.308 1.84284 31.8095C0 33.3873 0 33.4 0 33.8963C0 34.4816 0.243153 34.9905 0.5119 34.9905C0.844636 34.9905 1.38213 35.4741 1.66368 36.0085C1.80445 36.2757 2.0732 36.6065 2.26516 36.7465C3.097 37.3318 5.29817 37.6627 6.75709 37.4209L7.56333 37.2936L7.97285 37.739C8.52314 38.337 9.31659 38.4643 10.1356 38.0571C10.7115 37.7899 14.5252 34.5961 17.5582 31.8604C19.4522 30.1553 19.7338 30.0281 20.3736 30.537C21.3846 31.3259 21.3335 33.0056 20.2457 34.6852C19.5162 35.8049 18.454 36.9374 16.4448 38.706C13.3734 41.4291 11.5306 43.554 10.1228 45.9971C9.32939 47.384 8.85588 48.5674 8.31838 50.5778C7.93446 51.9775 7.90886 52.2193 7.97285 53.4408C8.06243 55.1331 8.53594 56.9018 9.13742 57.7798L9.57254 58.416L9.7645 57.5508C10.0844 56.1384 10.4684 55.2604 11.3898 53.8989C13.0279 51.4558 15.9073 48.3893 17.5966 47.2822C18.1597 46.9132 20.8983 45.2463 23.6754 43.5795C31.1747 39.0878 31.6355 38.7697 33.9518 36.4793C36.0506 34.418 36.8568 33.4509 37.7015 31.9749L38.2262 31.0587L38.6229 31.4659C39.1604 32.0131 39.4803 32.802 39.7363 34.1635C39.8643 34.787 39.9922 35.3596 40.0306 35.4232C40.261 35.8176 40.8753 32.2294 41.0288 29.5827C41.1184 27.7886 40.9392 25.6509 40.5553 24.3021C40.4145 23.755 39.941 22.7116 39.4675 21.859C38.7253 20.4975 38.5461 20.1031 38.6997 20.1031C38.8405 20.1031 42.7565 21.63 43.422 21.9481C43.8315 22.139 44.2026 22.2662 44.241 22.2153C44.2794 22.1772 44.2794 22.0245 44.241 21.859C44.1386 21.4773 41.4 17.5837 40.5425 16.6166C39.3523 15.2679 37.8294 14.3263 35.5131 13.4864C34.886 13.2574 34.195 12.9902 33.9774 12.8757C33.6191 12.6975 33.6191 12.6721 33.8494 12.583C34.2717 12.4176 35.9866 12.4558 38.9428 12.6721C42.1294 12.9266 42.411 12.863 41.3872 12.214C40.3762 11.5778 37.0872 9.94909 35.5771 9.35104C34.0158 8.72755 32.0706 8.21858 30.4581 8.01499C28.9096 7.82412 28.2697 7.58236 27.2843 6.8189C24.9679 5.0375 22.498 3.70145 20.4376 3.11613C19.8105 2.95071 18.2621 2.65805 16.9823 2.46719C13.3606 1.95821 11.7097 1.56376 8.65112 0.456745C7.39696 -0.00133133 6.91066 -0.103127 6.91066 0.100464ZM12.8231 3.30699C14.2564 3.79052 17.6606 5.29198 18.4284 5.80096C18.9659 6.14452 18.9787 6.16996 18.6844 6.20814C18.5052 6.22086 17.7885 6.15724 17.0847 6.05545C16.368 5.94093 15.7537 5.91548 15.7025 5.96637C15.4466 6.22086 18.5436 7.67143 21.1671 8.52396C22.1781 8.85479 22.7412 9.10928 22.6388 9.16018C22.5364 9.21107 21.743 9.19835 20.8599 9.13473C18.8251 8.99476 17.0463 9.10928 16.4448 9.41467L15.9841 9.6437L13.9877 7.02249C12.8871 5.57192 11.7993 4.1468 11.5562 3.85414C10.7371 2.83619 11.0315 2.70895 12.8231 3.30699ZM14.1285 19.0597C14.154 19.1106 14.0517 19.4669 13.8725 19.8486C13.7061 20.2303 13.5782 20.7393 13.5654 20.9811C13.5654 21.5791 12.5672 22.5843 11.8377 22.7243C11.1082 22.8515 10.7755 23.106 10.2124 23.984L9.70051 24.7475L9.7901 24.0095C10.046 21.8082 11.0571 20.3067 12.8615 19.4542C13.9749 18.9325 14.0389 18.907 14.1285 19.0597Z" fill="#333333"/>
</svg>
