<svg width="33" height="32" viewBox="0 0 33 32" fill="none" xmlns="http://www.w3.org/2000/svg">
<path id="Off" d="M23.925 0C21.054 0 18.2985 1.41253 16.5 3.64469C14.7015 1.41253 11.946 0 9.075 0C3.993 0 0 4.22016 0 9.59128C0 16.1831 5.61 21.5542 14.1075 29.7155L16.5 32L18.8925 29.6981C27.39 21.5542 33 16.1831 33 9.59128C33 4.22016 29.007 0 23.925 0ZM16.665 27.1172L16.5 27.2916L16.335 27.1172C8.481 19.6011 3.3 14.6311 3.3 9.59128C3.3 6.10354 5.775 3.48774 9.075 3.48774C11.616 3.48774 14.091 5.21417 14.9655 7.60327H18.051C18.909 5.21417 21.384 3.48774 23.925 3.48774C27.225 3.48774 29.7 6.10354 29.7 9.59128C29.7 14.6311 24.519 19.6011 16.665 27.1172Z" fill="white"/>
</svg>
