<svg width="24" height="24" viewBox="0 0 24 24" fill="none" xmlns="http://www.w3.org/2000/svg">
<g id="material-symbols:mail-rounded">
<path id="Vector" d="M2.25 18.0003V18V6C2.25 5.5169 2.41924 5.10931 2.76478 4.76378C3.1103 4.41825 3.51746 4.24942 3.9997 4.25H4H20C20.4831 4.25 20.8907 4.41924 21.2362 4.76478C21.5818 5.1103 21.7506 5.51746 21.75 5.9997V6V18C21.75 18.4831 21.5808 18.8907 21.2352 19.2362C20.8897 19.5818 20.4825 19.7506 20.0003 19.75H20H4C3.5169 19.75 3.10931 19.5808 2.76378 19.2352C2.41825 18.8897 2.24942 18.4825 2.25 18.0003ZM12.6531 12.8897L12.6531 12.8897L12.6576 12.887L19.7325 8.462C19.8989 8.35798 20.0313 8.22252 20.1207 8.05441C20.2076 7.89103 20.25 7.71308 20.25 7.525C20.25 7.10461 20.0628 6.77188 19.7018 6.55952C19.5249 6.45546 19.3352 6.40068 19.1366 6.40635C18.9391 6.412 18.7492 6.47694 18.5696 6.58668L18.5696 6.58667L18.5672 6.58818L12 10.7049L5.43279 6.58818L5.43279 6.58817L5.43036 6.58668C5.24998 6.47644 5.05875 6.41226 4.85968 6.40953C4.6597 6.40678 4.46972 6.46634 4.29345 6.57541C3.94133 6.79331 3.75 7.11685 3.75 7.525C3.75 7.72548 3.7903 7.91311 3.87928 8.0804C3.96966 8.25032 4.10509 8.38014 4.27725 8.4681L11.3424 12.887L11.3424 12.887L11.3464 12.8894C11.4488 12.9508 11.5574 12.9976 11.6716 13.029C11.7822 13.0595 11.8923 13.0758 12.001 13.075C12.1094 13.0749 12.2192 13.0584 12.3294 13.028C12.4432 12.9967 12.5513 12.9504 12.6531 12.8897Z" fill="#333333" stroke="white" stroke-width="0.5"/>
</g>
</svg>
