<svg width="24" height="24" viewBox="0 0 24 24" fill="none" xmlns="http://www.w3.org/2000/svg">
<g id="mingcute:telegram-fill" clip-path="url(#clip0_453_2975)">
<g id="Group">
<path id="Vector" d="M5.9689 15.281C6.6409 15.393 7.2029 15.281 8.2809 14.625C9.5029 13.881 13.1979 11.238 15.5009 9.49997C16.4279 8.79997 16.7859 9.23897 16.0009 9.99997L5.9689 15.281ZM5.9689 15.281C4.7429 15.077 3.6059 14.761 2.6779 14.376C1.4239 13.856 1.4849 12.132 2.6769 11.63L5.9689 15.281ZM15.3502 9.30046C13.0468 11.0388 9.36093 13.6747 8.15089 14.4114C7.62074 14.734 7.23416 14.9123 6.90811 14.9994C6.58884 15.0848 6.31695 15.0855 6.01 15.0344L6.00993 15.0344C4.79927 14.8329 3.68113 14.5215 2.7737 14.1451L2.77366 14.145C1.73757 13.7154 1.77357 12.2817 2.77393 11.8604L19.8739 4.66039C20.0798 4.57371 20.3052 4.54382 20.5266 4.57382C20.748 4.60382 20.9573 4.69261 21.1328 4.83096C21.3082 4.96931 21.4434 5.15215 21.5242 5.36046C21.605 5.56876 21.6285 5.79492 21.5922 6.01539L19.3243 19.7721C19.1313 20.9362 17.8574 21.5961 16.7972 21.0203C15.7816 20.4685 14.2764 19.6203 12.9247 18.7367C12.5869 18.5156 11.9115 18.058 11.3545 17.5351C11.0754 17.273 10.8363 17.0041 10.6834 16.7492C10.5279 16.4902 10.483 16.2827 10.5233 16.1232C10.5393 16.0603 10.5959 15.9455 10.7139 15.7735C10.8277 15.6077 10.9841 15.4091 11.1764 15.1836C11.5607 14.733 12.0763 14.1891 12.6511 13.608C13.4875 12.7626 14.4404 11.8474 15.284 11.0373C15.6002 10.7336 15.9012 10.4446 16.1748 10.1795L16.1749 10.1795C16.3838 9.97699 16.532 9.78178 16.6119 9.60576C16.6825 9.45044 16.7398 9.21115 16.5775 9.03345C16.4191 8.86014 16.177 8.88593 16.0088 8.93626C15.8183 8.99327 15.5953 9.11544 15.3503 9.30041L15.3502 9.30046Z" fill="#333333" stroke="white" stroke-width="0.5"/>
</g>
</g>
<defs>
<clipPath id="clip0_453_2975">
<rect width="24" height="24" fill="white"/>
</clipPath>
</defs>
</svg>
