<svg width="43" height="40" viewBox="0 0 43 40" fill="none" xmlns="http://www.w3.org/2000/svg">
<g id="ph:newspaper-fill">
<path id="Vector" d="M32.6786 11H14.4643C13.9812 11 13.5179 11.1975 13.1763 11.5492C12.8348 11.9008 12.6429 12.3777 12.6429 12.875V26.9375C12.6429 27.1861 12.5469 27.4246 12.3761 27.6004C12.2053 27.7762 11.9737 27.875 11.7321 27.875C11.4906 27.875 11.259 27.7762 11.0882 27.6004C10.9174 27.4246 10.8214 27.1861 10.8214 26.9375V15.6875C10.8214 15.4389 10.7255 15.2004 10.5547 15.0246C10.3839 14.8488 10.1523 14.75 9.91071 14.75C9.66918 14.75 9.43753 14.8488 9.26674 15.0246C9.09595 15.2004 9 15.4389 9 15.6875V26.9504C9.00331 27.6941 9.29262 28.4061 9.80464 28.9308C10.3167 29.4555 11.0097 29.75 11.7321 29.75H31.7679C32.4925 29.75 33.1874 29.4537 33.6998 28.9262C34.2122 28.3988 34.5 27.6834 34.5 26.9375V12.875C34.5 12.3777 34.3081 11.9008 33.9665 11.5492C33.6249 11.1975 33.1616 11 32.6786 11ZM28.125 23.1875H19.0179C18.7763 23.1875 18.5447 23.0887 18.3739 22.9129C18.2031 22.7371 18.1071 22.4986 18.1071 22.25C18.1071 22.0014 18.2031 21.7629 18.3739 21.5871C18.5447 21.4113 18.7763 21.3125 19.0179 21.3125H28.125C28.3665 21.3125 28.5982 21.4113 28.769 21.5871C28.9398 21.7629 29.0357 22.0014 29.0357 22.25C29.0357 22.4986 28.9398 22.7371 28.769 22.9129C28.5982 23.0887 28.3665 23.1875 28.125 23.1875ZM28.125 19.4375H19.0179C18.7763 19.4375 18.5447 19.3387 18.3739 19.1629C18.2031 18.9871 18.1071 18.7486 18.1071 18.5C18.1071 18.2514 18.2031 18.0129 18.3739 17.8371C18.5447 17.6613 18.7763 17.5625 19.0179 17.5625H28.125C28.3665 17.5625 28.5982 17.6613 28.769 17.8371C28.9398 18.0129 29.0357 18.2514 29.0357 18.5C29.0357 18.7486 28.9398 18.9871 28.769 19.1629C28.5982 19.3387 28.3665 19.4375 28.125 19.4375Z" fill="#3CE3E8"/>
</g>
</svg>
