<!-- icon666.com - MILLIONS vector ICONS FREE --><svg version="1.1" id="Capa_1" xmlns="http://www.w3.org/2000/svg" xmlns:xlink="http://www.w3.org/1999/xlink" x="0px" y="0px" viewBox="0 0 30 30" style="enable-background:new 0 0 30 30;" xml:space="preserve"><g><g><path d="M0,3.865v18.497h20.568L30,26.135v-3.772V3.865H0z M27.238,22.057L21.1,19.602H2.761V6.626H27.24v15.431H27.238z" fill="#000000" style="fill: rgb(255, 255, 255);"></path><g><path d="M9.72,13.762H7.235v-2.21l1.041-2.103h0.957L8.637,11H9.72V13.762z M13.736,13.762H11.25v-2.21l1.041-2.103h0.957 L12.653,11h1.083V13.762z" fill="#000000" style="fill: rgb(255, 255, 255);"></path><path d="M16.264,12.465h2.485v2.209l-1.041,2.104h-0.957l0.595-1.551h-1.082V12.465L16.264,12.465z M20.279,12.465h2.486v2.209 l-1.041,2.104h-0.957l0.594-1.551h-1.084v-2.762H20.279z" fill="#000000" style="fill: rgb(255, 255, 255);"></path></g></g></g></svg>