<svg width="18" height="20" viewBox="0 0 18 20" fill="none" xmlns="http://www.w3.org/2000/svg">
<path d="M2.79167 19.1666C2.26458 19.1666 1.81321 18.9869 1.43754 18.6276C1.06188 18.2683 0.874363 17.8368 0.875002 17.3333V4.49992H2.79167V17.3333H13.3333V19.1666H2.79167ZM6.625 15.4999C6.09792 15.4999 5.64654 15.3203 5.27088 14.9609C4.89521 14.6016 4.7077 14.1701 4.70834 13.6666V2.66659C4.70834 2.16242 4.89617 1.73067 5.27183 1.37134C5.6475 1.012 6.09856 0.832642 6.625 0.833254H15.25C15.7771 0.833254 16.2285 1.01292 16.6041 1.37225C16.9798 1.73159 17.1673 2.16303 17.1667 2.66659V13.6666C17.1667 14.1708 16.9788 14.6025 16.6032 14.9618C16.2275 15.3212 15.7764 15.5005 15.25 15.4999H6.625Z" fill="#3CE3E8"/>
</svg>
