<!DOCTYPE svg PUBLIC "-//W3C//DTD SVG 1.1//EN" "http://www.w3.org/Graphics/SVG/1.1/DTD/svg11.dtd">

<!-- Uploaded to: SVG Repo, www.svgrepo.com, Transformed by: SVG Repo Mixer Tools -->
<svg width="30px" height="30px" viewBox="-0.5 0 25 25" fill="none" xmlns="http://www.w3.org/2000/svg">

<g id="SVGRepo_bgCarrier" stroke-width="0"/>

<g id="SVGRepo_tracerCarrier" stroke-linecap="round" stroke-linejoin="round" stroke="#CCCCCC" stroke-width="0.55"/>

<g id="SVGRepo_iconCarrier"> <path d="M18.8887 10.25C18.5395 10.2462 18.1974 10.151 17.8964 9.97387C17.5954 9.79677 17.3461 9.54393 17.1731 9.24053C17.0002 8.93714 16.9097 8.59372 16.9107 8.2445C16.9117 7.89528 17.0041 7.55241 17.1787 7.24999L17.2987 7.03997C17.4297 6.81781 17.5133 6.57097 17.5443 6.31493C17.5753 6.0589 17.553 5.79924 17.4788 5.55224C17.4046 5.30524 17.2801 5.07626 17.1132 4.87969C16.9462 4.68312 16.7404 4.52317 16.5087 4.40996V4.40996C16.0227 4.17652 15.467 4.13332 14.9507 4.28875C14.4345 4.44418 13.995 4.78704 13.7187 5.24999V5.24999C13.5404 5.54389 13.2894 5.78686 12.9899 5.9555C12.6903 6.12413 12.3524 6.21276 12.0087 6.21276C11.665 6.21276 11.327 6.12413 11.0275 5.9555C10.728 5.78686 10.4769 5.54389 10.2987 5.24999C10.0224 4.78704 9.58291 4.44418 9.06665 4.28875C8.5504 4.13332 7.99469 4.17652 7.5087 4.40996V4.40996C7.27697 4.52317 7.07116 4.68312 6.90421 4.87969C6.73726 5.07626 6.61277 5.30524 6.53858 5.55224C6.46438 5.79924 6.44209 6.0589 6.47309 6.31493C6.50408 6.57097 6.5877 6.81781 6.71869 7.03997L6.83869 7.24999C7.01332 7.55241 7.10571 7.89528 7.10669 8.2445C7.10767 8.59372 7.01721 8.93714 6.84427 9.24053C6.67134 9.54393 6.42196 9.79677 6.12097 9.97387C5.81999 10.151 5.4779 10.2462 5.12869 10.25C4.64217 10.238 4.16698 10.3979 3.78659 10.7015C3.40621 11.005 3.14493 11.4329 3.04868 11.91C2.99868 12.1996 3.01314 12.4967 3.09101 12.7801C3.16887 13.0635 3.30826 13.3263 3.49921 13.5497C3.69016 13.7731 3.92799 13.9516 4.1958 14.0727C4.46362 14.1937 4.75481 14.2543 5.04868 14.25H5.1687C5.5179 14.2538 5.86 14.349 6.16098 14.5261C6.46196 14.7032 6.71131 14.9561 6.88425 15.2595C7.05718 15.5628 7.14768 15.9063 7.1467 16.2555C7.14572 16.6047 7.05333 16.9476 6.87869 17.25L6.82868 17.33C6.56685 17.7935 6.4956 18.3407 6.62998 18.8558C6.76435 19.3709 7.0938 19.8135 7.54868 20.09V20.09C8.00218 20.351 8.53992 20.4239 9.04654 20.293C9.55316 20.1622 9.98834 19.838 10.2587 19.39L10.2787 19.25C10.457 18.9561 10.708 18.7131 11.0075 18.5445C11.307 18.3759 11.6449 18.2872 11.9887 18.2872C12.3324 18.2872 12.6704 18.3759 12.9699 18.5445C13.2694 18.7131 13.5204 18.9561 13.6987 19.25L13.7687 19.39C14.0391 19.8407 14.4761 20.1668 14.9851 20.2978C15.4942 20.4288 16.0343 20.3542 16.4887 20.09C16.9367 19.8197 17.2609 19.3845 17.3917 18.8779C17.5226 18.3712 17.4497 17.8335 17.1887 17.38L17.1287 17.27C16.9541 16.9676 16.8617 16.6247 16.8607 16.2754C16.8597 15.9262 16.9502 15.5829 17.1231 15.2795C17.296 14.9761 17.5454 14.7232 17.8464 14.5461C18.1474 14.369 18.4895 14.2738 18.8387 14.27H18.9587C19.2525 14.2743 19.5438 14.2138 19.8116 14.0927C20.0794 13.9717 20.3172 13.793 20.5082 13.5696C20.6991 13.3462 20.8385 13.0835 20.9164 12.8001C20.9942 12.5167 21.0087 12.2196 20.9587 11.93C20.8669 11.451 20.6088 11.0198 20.2301 10.7124C19.8514 10.405 19.3763 10.2413 18.8887 10.25V10.25Z" stroke="#000000" stroke-width="0.85" stroke-linecap="round" stroke-linejoin="round"/> <path d="M12 14.79C13.3807 14.79 14.5 13.6707 14.5 12.29C14.5 10.9093 13.3807 9.78998 12 9.78998C10.6193 9.78998 9.5 10.9093 9.5 12.29C9.5 13.6707 10.6193 14.79 12 14.79Z" stroke="#000000" stroke-width="0.85" stroke-linecap="round" stroke-linejoin="round"/> </g>

</svg>