<!-- icon666.com - MILLIONS vector ICONS FREE --><svg viewBox="0 0 580 580" xmlns="http://www.w3.org/2000/svg"><g id="spoiler_1" data-name="spoiler 1"><path d="m510.149 231.838-20.93-74.171c-4.439-15.723-16.09-26.958-30.465-29.33l-20.051-3.16-394.097-62.019c-11.383-1.887-22.706 2.142-31.066 11.042-10.186 10.848-14.308 27.147-10.755 42.54l30.315 131.26c4.271 18.483 18.949 31.641 35.694 32h.167.029l41.951-.141 50.271-.167 7.118 41.257 31.79 184.41a8 8 0 0 0 7.88 6.641h272a8 8 0 0 0 7-11.864l-122-221.123 108.719-.363c.32.006.638.01.956.01 12.788 0 23.888-4.9 30.572-13.545 6.753-8.726 8.495-20.544 4.902-33.277zm-43.7 264.162h-251.71l-37.239-216h169.777l47.6 86.274zm26.151-240.674c-3.734 4.825-10.536 7.487-18.64 7.326-.065 0-.132 0-.194 0l-404.724 1.348c-9.381-.249-17.744-8.295-20.356-19.6l-30.311-131.259c-2.367-10.258.249-20.981 6.828-27.987 2.392-2.547 7.15-6.449 13.885-6.449a18.17 18.17 0 0 1 2.968.248l414.151 65.18c8.007 1.322 14.92 8.34 17.614 17.883l20.93 74.167c2.213 7.842 1.468 14.461-2.151 19.143z" fill="#000000" style="fill: rgb(255, 250, 250);"></path><path d="m337.435 326.855-5.6 8.272q-5.137 7.583-10.015 14.8l-32.1 47.387c-19.557 28.866-35.142 51.871-47.558 70.2a8 8 0 0 0 6.618 12.486h159.22a8 8 0 0 0 7.283-11.311l-51.46-113.2-12.48-27.46a8 8 0 0 0 -13.908-1.174zm-73.575 137.145c10.845-16.011 23.749-35.058 39.1-57.716l32.1-47.387q3.729-5.519 7.612-11.248l6.576 14.469 46.327 101.882z" fill="#000000" style="fill: rgb(255, 250, 250);"></path><path d="m242.943 412.218 42-62.012 33.676-49.715a8 8 0 0 0 -6.619-12.491h-96a8 8 0 0 0 -7.871 9.433l6.79 37.309v.007l13.529 74.412a8 8 0 0 0 14.494 3.057zm-12.281-80.334v-.007l-5.075-27.877h71.331l-25.218 37.229-31.01 45.787z" fill="#000000" style="fill: rgb(255, 250, 250);"></path><path d="m152 168a32 32 0 1 0 32 32 32.036 32.036 0 0 0 -32-32zm0 48a16 16 0 1 1 16-16 16.019 16.019 0 0 1 -16 16z" fill="#000000" style="fill: rgb(255, 250, 250);"></path><path d="m320 176a32 32 0 1 0 32 32 32.036 32.036 0 0 0 -32-32zm0 48a16 16 0 1 1 16-16 16.019 16.019 0 0 1 -16 16z" fill="#000000" style="fill: rgb(255, 250, 250);"></path></g></svg>