<!DOCTYPE svg PUBLIC "-//W3C//DTD SVG 1.1//EN" "http://www.w3.org/Graphics/SVG/1.1/DTD/svg11.dtd">
<!-- Uploaded to: SVG Repo, www.svgrepo.com, Transformed by: SVG Repo Mixer Tools -->
<svg fill="#3ce3e8" height="64px" width="64px" version="1.1" id="Layer_1" xmlns="http://www.w3.org/2000/svg" xmlns:xlink="http://www.w3.org/1999/xlink" viewBox="0 0 511.95 511.95" xml:space="preserve" stroke="#3ce3e8" transform="rotate(0)" stroke-width="12.798675">
<g id="SVGRepo_bgCarrier" stroke-width="0"/>
<g id="SVGRepo_tracerCarrier" stroke-linecap="round" stroke-linejoin="round" stroke="#CCCCCC" stroke-width="2.0477879999999997"/>
<g id="SVGRepo_iconCarrier"> <g> <g> <path d="M476.847,216.373L263.513,3.04c-4.267-4.053-10.88-4.053-15.04,0L35.14,216.373c-4.16,4.16-4.16,10.88-0.107,15.04 c2.027,2.027,4.8,3.2,7.573,3.2h128V501.28c0,5.867,4.8,10.667,10.667,10.667h149.333c5.867,0,10.667-4.8,10.667-10.667V234.613 h128c5.867,0,10.667-4.8,10.667-10.667C479.94,221.067,478.873,218.4,476.847,216.373z M330.607,213.28 c-5.867,0-10.667,4.8-10.667,10.667v266.667h-128V223.947c0-5.867-4.8-10.667-10.667-10.667H68.42L255.94,25.547L443.567,213.28 H330.607z"/> </g> </g> </g>
</svg>