<svg width="50" height="50" viewBox="0 0 50 50" fill="none" xmlns="http://www.w3.org/2000/svg">
<path id="user" fill-rule="evenodd" clip-rule="evenodd" d="M25 0C11.1925 0 0 11.1925 0 25C0 38.8075 11.1925 50 25 50C38.8075 50 50 38.8075 50 25C50 11.1925 38.8075 0 25 0ZM16.25 18.75C16.25 17.6009 16.4763 16.4631 16.9161 15.4015C17.3558 14.3399 18.0003 13.3753 18.8128 12.5628C19.6253 11.7503 20.5899 11.1058 21.6515 10.6661C22.7131 10.2263 23.8509 10 25 10C26.1491 10 27.2869 10.2263 28.3485 10.6661C29.4101 11.1058 30.3747 11.7503 31.1872 12.5628C31.9997 13.3753 32.6442 14.3399 33.0839 15.4015C33.5237 16.4631 33.75 17.6009 33.75 18.75C33.75 21.0706 32.8281 23.2962 31.1872 24.9372C29.5462 26.5781 27.3206 27.5 25 27.5C22.6794 27.5 20.4538 26.5781 18.8128 24.9372C17.1719 23.2962 16.25 21.0706 16.25 18.75ZM40.645 37.46C38.7736 39.8141 36.3945 41.7149 33.6854 43.0205C30.9763 44.3261 28.0073 45.0028 25 45C21.9927 45.0028 19.0237 44.3261 16.3146 43.0205C13.6055 41.7149 11.2264 39.8141 9.355 37.46C13.4075 34.5525 18.9375 32.5 25 32.5C31.0625 32.5 36.5925 34.5525 40.645 37.46Z" fill="#3CE3E8"/>
</svg>
