<svg width="43" height="32" viewBox="0 0 43 32" fill="none" xmlns="http://www.w3.org/2000/svg">
<g id="&#208;&#179;&#208;&#187;&#208;&#176;&#208;&#183;&#208;&#184;&#208;&#186;">
<path id="Vector" d="M37.3898 13.3689C38.2034 14.3431 38.2034 15.6584 37.3898 16.6311C34.8271 19.6939 28.6786 26 21.5003 26C14.3219 26 8.17345 19.6939 5.61073 16.6311C5.21488 16.1646 5 15.5907 5 15C5 14.4093 5.21488 13.8354 5.61073 13.3689C8.17345 10.3061 14.3219 4 21.5003 4C28.6786 4 34.8271 10.3061 37.3898 13.3689V13.3689Z" stroke="white" stroke-width="3" stroke-linecap="round" stroke-linejoin="round"/>
<path id="Vector_2" d="M21.5 21C25.0899 21 28 18.3137 28 15C28 11.6863 25.0899 9 21.5 9C17.9101 9 15 11.6863 15 15C15 18.3137 17.9101 21 21.5 21Z" stroke="white" stroke-width="3" stroke-linecap="round" stroke-linejoin="round"/>
</g>
</svg>
