<svg width="25" height="28" viewBox="0 0 25 28" fill="none" xmlns="http://www.w3.org/2000/svg">
<path id="Vector" d="M22.2222 0H4.16667C2.49167 0 0 1.1186 0 4.2V23.8C0 26.8814 2.49167 28 4.16667 28H25V25.2H4.18333C3.54167 25.1832 2.77778 24.927 2.77778 23.8C2.77778 23.6586 2.79028 23.5326 2.81111 23.4178C2.96667 22.6128 3.62083 22.414 4.18194 22.4H23.6111C23.6361 22.4 23.6542 22.3874 23.6792 22.386H25V2.8C25 1.2558 23.7542 0 22.2222 0ZM22.2222 19.6H2.77778V4.2C2.77778 3.0716 3.54167 2.8168 4.16667 2.8H13.8889V12.6L16.6667 11.2L19.4444 12.6V2.8H22.2222V19.6Z" fill="#3CE3E8"/>
</svg>
